<svg xmlns="http://www.w3.org/2000/svg" viewBox="0.6173 -0.0000297651 21.29 22.53">
	<path d="M21.8475 19.5413l-5.7121-9.4669c-.4087-.6773-1.008-1.2092-1.7046-1.5434.1952-.6239.2942-1.2725.2942-1.9338 0-1.1088-.2823-2.19-.8178-3.1503.8101-.7396 1.4797-1.6087 1.4911-2.3456.0038-.2478-.0807-1.0593-1.3299-1.0982-1.1784-.0364-2.3346.2493-3.3175.6186C9.9581.2888 9.1169.1199 8.2478.1199c-.8689 0-1.7097.1687-2.5024.5015C4.8198.2736 3.74 0 2.6316 0c-.068 0-.1365.0011-.2046.0032C1.1777.042 1.0933.8536 1.0971 1.1014c.0115.7369.681 1.606 1.4911 2.3456-.5355.9604-.8178 2.0415-.8178 3.1503 0 .828.1564 1.6201.4408 2.3486-1.0045.7566-1.5939 1.9278-1.5939 3.2017 0 4.4439 3.6153 8.0592 8.0593 8.0592h.2371v1.4436h-1.8914c-.2424 0-.4388.1964-.4388.4388S6.78 22.528 7.0223 22.528h2.3302c.2424 0 .4388-.1964.4388-.4388v-1.8824h3.1725v1.4436h-1.8913c-.2424 0-.4388.1964-.4388.4388s.1964.4388.4388.4388h2.3302c.2424 0 .4388-.1964.4388-.4388v-1.8824h2.9038c0 0 0 0 .0001 0 .0001 0 .0003 0 .0005 0h4.726c.1583 0 .3043-.0852.3821-.2231C21.9318 19.8459 21.9293 19.6768 21.8475 19.5413zM8.2478.9976c.4423 0 .8762.0505 1.2979.1506-.5812.2894-1.034.5666-1.2979.7386-.264-.1721-.716-.4493-1.297-.7388C7.3722 1.048 7.8057.9976 8.2478.9976zM1.9746 1.0878c-.0009-.0576-.003-.1924.4798-.2074.059-.0018.1183-.0028.1772-.0028 2.6924 0 5.3334 1.8763 5.3595 1.8952.1452.1047.3377.1089.488.0153.0083-.0051.017-.0094.025-.0151 1.5061-1.0789 3.4932-1.8954 5.3599-1.8954.0591 0 .1181.0009.1772.0028.4828.015.4807.1498.4798.2074-.0069.4442-.4275.9005-.7026 1.207-.8413.9378-1.9451 1.6994-3.0967 2.2047-.8052.3533-1.6779.6071-2.5641.59-.8201-.0158-1.6376-.2626-2.3835-.59C4.8602 4.0986 4.0104 3.5396 3.2655 2.8767 2.8134 2.4746 1.9853 1.7653 1.9746 1.0878zM8.6866 12.1794c-.0039.0003-.0078.0007-.0117.0011-2.0946.1581-4.1386-.9003-5.2236-2.6959-.5245-.8681-.8033-1.8733-.8033-2.8873 0-.9026.2156-1.7841.627-2.5768.073.0558.1459.1101.2185.1628.9179.6656 1.8933 1.1645 2.8368 1.4636.2543 1.5865.9036 2.5419 1.8445 2.7007.0242.004.0486.0061.0731.0061.0244 0 .0488-.0021.073-.0061.9409-.1588 1.5902-1.1142 1.8445-2.7007.9434-.2991 1.9188-.798 2.8367-1.4636.0726-.0527.1455-.107.2185-.1628.4114.7926.6269 1.6741.6269 2.5768 0 .5609-.0821 1.1111-.2443 1.6406.0071-.0253-.7637-.0758-.8224-.0782-.3824-.016-.7406.0103-1.1135.1096-.8862.2361-1.6761.782-2.2151 1.5233-.4956.6816-.7655 1.5124-.7655 2.3551C8.6866 12.1582 8.6866 12.1688 8.6866 12.1794zM7.2677 5.8804c.6402.1129 1.2928.1141 1.9334.0041.0089-.0015.0177-.0026.0268-.0041-.0603.2717-.1443.5585-.2608.8169-.1944.4311-.436.6892-.7192.7685-.2832-.0793-.5249-.3375-.7193-.7685C7.412 6.4389 7.328 6.1521 7.2677 5.8804zM1.495 12.1476c0-.9323.4041-1.7942 1.1003-2.3855.445.7932 1.0537 1.4859 1.7873 2.0321v3.7042c0 .9717.3121 1.9377.8749 2.7292.0974.137.2022.2694.3139.3951C3.1618 17.4624 1.495 14.996 1.495 12.1476zM9.0911 19.3292V19.3292c-2.1124 0-3.8309-1.7186-3.8309-3.8309v-3.1526c0 .0288.2718.1338.3059.1493.1073.0489.216.0949.3258.1377.2194.0857.4436.1592.6711.2202.4642.1244.9421.1965 1.4223.216.2507.0102.502.0062.7522-.0121.0982.8573.3315 1.6974.6945 2.4804.3263.7039.7553 1.3594 1.2686 1.9411.5108.5787 1.1044 1.0838 1.7578 1.4948.2035.128.4128.247.6269.3563H9.0911zM19.8272 19.3292c-.5746 0-1.1491 0-1.7237 0-.4508-0-.9057.0137-1.3578.0042-.1304-.0028-.2606-.0074-.3904-.0149-.9223-.0543-1.8275-.2786-2.6641-.6723-.1482-.0697-.294-.1446-.437-.2245-.6292-.3516-1.2048-.7981-1.7024-1.3195-.4983-.5221-.9179-1.1187-1.2396-1.7648-.3282-.6592-.5537-1.3691-.6651-2.097-.0553-.3613-.083-.7273-.083-1.0928 0-1.7288 1.4065-3.1354 3.1353-3.1354.0394 0 .0788.001.1181.0025.0146.0006.0291.0014.0436.0022.0239.0012.0479.0028.0717.0046.0187.0014.0374.0029.056.0046.0174.0016.0346.0036.052.0055.9613.107 1.8383.6596 2.343 1.4962L20.6945 19.3292C20.4054 19.3292 20.1164 19.3292 19.8272 19.3292z" fill="#000000"/>
</svg>